<?xml version="1.0" standalone="no"?>
<!DOCTYPE svg PUBLIC "-//W3C//DTD SVG 1.1//EN" "http://www.w3.org/Graphics/SVG/1.1/DTD/svg11.dtd" >
<svg xmlns="http://www.w3.org/2000/svg">
<metadata>
Created by FontForge 20120731 at Wed Jan  4 15:03:15 2017
 By admin
</metadata>
<defs>
<font id="iconfont" horiz-adv-x="1024" >
  <font-face 
    font-family="iconfont"
    font-weight="500"
    font-stretch="normal"
    units-per-em="1024"
    panose-1="2 0 6 3 0 0 0 0 0 0"
    ascent="896"
    descent="-128"
    x-height="792"
    bbox="-0.0129852 -222.779 1431.6 896"
    underline-thickness="0"
    underline-position="0"
    unicode-range="U+0078-E7E4"
  />
<missing-glyph 
 />
    <glyph glyph-name=".notdef" 
 />
    <glyph glyph-name=".notdef" 
 />
    <glyph glyph-name=".null" horiz-adv-x="0" 
 />
    <glyph glyph-name="nonmarkingreturn" horiz-adv-x="341" 
 />
    <glyph glyph-name="x" unicode="x" horiz-adv-x="1001" 
d="M281 543q-27 -1 -53 -1h-83q-18 0 -36.5 -6t-32.5 -18.5t-23 -32t-9 -45.5v-76h912v41q0 16 -0.5 30t-0.5 18q0 13 -5 29t-17 29.5t-31.5 22.5t-49.5 9h-133v-97h-438v97zM955 310v-52q0 -23 0.5 -52t0.5 -58t-10.5 -47.5t-26 -30t-33 -16t-31.5 -4.5q-14 -1 -29.5 -0.5
t-29.5 0.5h-32l-45 128h-439l-44 -128h-29h-34q-20 0 -45 1q-25 0 -41 9.5t-25.5 23t-13.5 29.5t-4 30v167h911zM163 247q-12 0 -21 -8.5t-9 -21.5t9 -21.5t21 -8.5q13 0 22 8.5t9 21.5t-9 21.5t-22 8.5zM316 123q-8 -26 -14 -48q-5 -19 -10.5 -37t-7.5 -25t-3 -15t1 -14.5
t9.5 -10.5t21.5 -4h37h67h81h80h64h36q23 0 34 12t2 38q-5 13 -9.5 30.5t-9.5 34.5q-5 19 -11 39h-368zM336 498v228q0 11 2.5 23t10 21.5t20.5 15.5t34 6h188q31 0 51.5 -14.5t20.5 -52.5v-227h-327z" />
    <glyph glyph-name="weixin" unicode="&#xe600;" horiz-adv-x="1000" 
d="M676 471q16 0 34 -2q-23 106 -123.5 176t-229.5 70q-95 0 -175.5 -39.5t-127.5 -108t-47 -150.5q0 -138 140 -236l-35 -106l122 62q89 -18 123 -18q15 0 33 2q-11 37 -11 73q0 115 86.5 196t210.5 81zM485.5 573q22.5 0 38.5 -16t16 -38.5t-16 -38t-38.5 -15.5t-38 15.5
t-15.5 38t15.5 38.5t38 16zM240.5 464q-22.5 0 -38 15.5t-15.5 38t15.5 38.5t38 16t38.5 -16t16 -38.5t-16 -38t-38.5 -15.5zM994 197q0 68 -41.5 127t-110 93t-146.5 34q-124 0 -211 -74.5t-87 -179.5t87 -179.5t211 -74.5q35 0 105 18l96 -53l-26 87q123 92 123 202z
M605 236q-16 0 -27.5 11.5t-11.5 27.5t11.5 27t27.5 11t27 -11t11 -27t-11 -27.5t-27 -11.5zM797 234q-16 0 -27 11.5t-11 27.5t11 27t27 11t27.5 -11t11.5 -27t-11.5 -27.5t-27.5 -11.5z" />
    <glyph glyph-name="sousuo" unicode="&#xe601;" horiz-adv-x="1000" 
d="M936 -24l-198 203q-1 1 -3.5 2.5t-3.5 2.5q66 93 66 207q0 98 -48 181t-131 131t-180.5 48t-180.5 -48t-131 -131t-48 -180.5t48 -180.5t131 -131t181 -48q121 0 218 74q0 -1 1 -2.5t2 -1.5l198 -204q17 -16 40 -16q22 0 39 15q16 16 16 39t-16 40zM133 391.5
q0 125.5 89.5 215t215.5 89.5t215 -89.5t89 -215t-89 -215t-215 -89.5t-215.5 89.5t-89.5 215z" />
    <glyph glyph-name="bofang" unicode="&#xe602;" 
d="M508 672q-101 0 -187 -50t-136 -136t-50 -187.5t50 -187.5t136 -136t187 -50t187 50t136 136t50 187.5t-50 187.5t-136 136t-187 50zM508 -7q-127 0 -216 89.5t-89 216t89 216t216 89.5t216 -89.5t89 -216t-89 -216t-216 -89.5zM406 146l289 170l-289 135v-305z" />
    <glyph glyph-name="bofang1" unicode="&#xe603;" 
d="M836 300l-642 -374v748z" />
    <glyph glyph-name="jiugongge1" unicode="&#xe60c;" 
d="M243 738q28 0 47.5 -19.5t19.5 -47.5v-114q0 -28 -19.5 -47.5t-47.5 -19.5h-114q-28 0 -47.5 19.5t-19.5 47.5v114q0 28 19.5 47.5t47.5 19.5h114zM559 738q28 0 47.5 -19.5t19.5 -47.5v-114q0 -28 -19.5 -47.5t-47.5 -19.5h-116q-28 0 -47.5 19.5t-19.5 47.5v114
q0 28 19.5 47.5t47.5 19.5h116zM871 738q28 0 47.5 -19.5t19.5 -47.5v-114q0 -28 -19.5 -47.5t-47.5 -19.5h-116q-28 0 -47.5 19.5t-19.5 47.5v114q0 28 19.5 47.5t47.5 19.5h116zM243 424q28 0 47.5 -19.5t19.5 -47.5v-114q0 -28 -19.5 -47.5t-47.5 -19.5h-114
q-28 0 -47.5 19.5t-19.5 47.5v114q0 28 19.5 47.5t47.5 19.5h114zM559 424q28 0 47.5 -19.5t19.5 -47.5v-114q0 -28 -19.5 -47.5t-47.5 -19.5h-116q-28 0 -47.5 19.5t-19.5 47.5v114q0 28 19.5 47.5t47.5 19.5h116zM871 424q28 0 47.5 -19.5t19.5 -47.5v-114
q0 -28 -19.5 -47.5t-47.5 -19.5h-116q-28 0 -47.5 19.5t-19.5 47.5v114q0 28 19.5 47.5t47.5 19.5h116zM243 110q28 0 47.5 -19.5t19.5 -47.5v-114q0 -28 -19.5 -47.5t-47.5 -19.5h-114q-28 0 -47.5 19.5t-19.5 47.5v114q0 28 19.5 47.5t47.5 19.5h114zM559 110
q28 0 47.5 -19.5t19.5 -47.5v-114q0 -28 -19.5 -47.5t-47.5 -19.5h-116q-28 0 -47.5 19.5t-19.5 47.5v114q0 28 19.5 47.5t47.5 19.5h116zM871 110q28 0 47.5 -19.5t19.5 -47.5v-114q0 -28 -19.5 -47.5t-47.5 -19.5h-116q-28 0 -47.5 19.5t-19.5 47.5v114q0 28 19.5 47.5
t47.5 19.5h116z" />
    <glyph glyph-name="QQ" unicode="&#xe607;" 
d="M971 143l-2 18l-3 17l-3 9l-2 9l-3 9l-4 10l-3 10l-4 9l-8 16l-6 14l-7 13l-5 11l-7 11l-5 9l-10 15l-12 19l-3 5l-1 2v1l2 7l3 6l2 11l2 6v6v5v5v6l-1 4l-2 10l-2 9l-3 8l-3 8l-4 7l-3 7l-3 6l-6 9l-2 3v2l-3 18l-1 11l-2 14l-3 15l-4 17l-3 9l-2 8l-3 9l-3 10l-3 9
l-4 10l-8 19l-5 9l-6 10l-5 9l-6 10l-7 10l-7 8l-8 10l-8 8l-8 8l-9 9l-5 3l-5 4l-11 7l-12 8l-12 7l-13 7l-13 6l-13 6l-14 4l-15 4l-13 4l-15 3l-13 4l-15 1l-14 2l-15 2h-15h-14h-14l-14 -1l-14 -2l-14 -2l-13 -2l-14 -3l-13 -3l-13 -4l-12 -4l-12 -4l-12 -6l-12 -5
l-10 -6l-10 -6l-10 -7l-10 -8l-8 -7l-12 -12l-10 -10l-10 -11l-9 -11l-9 -11l-7 -10l-7 -11l-4 -5l-3 -6l-7 -10l-5 -10l-5 -10l-4 -10l-4 -9l-3 -9l-3 -9l-4 -8l-4 -16l-3 -15l-1 -12l-2 -11v-8v-7v-6l-3 -3l-3 -4l-2 -4l-2 -4l-2 -9l-3 -9v-7l-1 -6v-6l-6 -8l-4 -9l-3 -8
l-2 -7l-2 -7l-2 -6v-6v-6v-5l1 -4l2 -7l1 -6l-3 -3l-9 -6l-12 -11l-7 -7l-7 -6l-5 -5l-4 -5l-9 -9l-8 -10l-7 -8l-8 -11l-7 -11l-7 -12l-7 -11l-5 -11l-5 -11l-4 -10l-4 -11l-3 -11l-3 -11l-3 -10l-2 -10l-1 -9l-2 -10l-1 -18v-17v-7l1 -7l2 -13l1 -6l2 -5l2 -6l1 -3l3 -7
l2 -2l2 -3h1h1h1h7l7 2l7 3l6 4l6 4l5 5l6 5l5 6l5 6l4 6l4 4l2 6l5 8l2 4l1 2v3l1 2h1l2 1h1v-1h1h1l3 -12l2 -10l4 -10l4 -9l4 -9l5 -8l4 -9l4 -7l5 -7l3 -6l10 -12l9 -11l8 -8l8 -7l7 -6l11 -10l4 -2l2 -2v-1l-1 -1h-1h-2l-8 -1l-7 -1l-6 -1l-7 -1l-5 -2l-6 -2l-5 -2
l-4 -3l-5 -1l-3 -3l-3 -2l-4 -3l-4 -5l-2 -3l-2 -2l-3 -6l-2 -5l-1 -5l-1 -4v-6v-3l-1 -4v-4l-1 -4v-3l1 -4l1 -4l2 -7l2 -3l2 -3l2 -3l3 -3l3 -3l2 -3l7 -5l8 -4l8 -5l9 -3l9 -4l11 -2l10 -4l11 -2l12 -2l11 -2l12 -1l24 -3h24h23h10h10h11l9 1l9 1l8 1l13 2l9 3l9 2l17 7
l8 3l7 3l12 7l10 6l8 5l6 5l9 -1l7 -1l14 -1h6h6l4 -1l4 -1l7 -3l8 -2l14 -5l15 -5l14 -4l14 -3l15 -4l15 -2l15 -2l14 -2l14 -1l15 -1h13h14h13l13 1l13 1l12 2l11 3l11 2l11 3l5 1l5 2l9 3l8 4l8 4l8 4l6 5l3 3l3 4l4 4l4 6l1 3l1 3l2 3l1 3v4l1 3l-1 5l-1 4l-2 5l-1 4
l-3 5l-3 5l-3 3l-4 4l-9 7l-10 8l-10 5l-10 6l-23 12l-6 3l-2 2l-1 1l12 11l5 6l4 5l8 12l7 11l6 11l6 10l8 20l7 16l4 12l2 4l2 3l2 2h1h1l6 -12l5 -12l4 -7l4 -5l4 -7l5 -7l4 -5l3 -2l2 -3l2 -1l3 -2l4 -2l3 -1h2h2l2 1l4 1l3 2l3 2l3 3l3 4l2 3l3 5l2 3l2 6l2 4l3 11
l2 12l2 14l1 8v6v7v9z" />
    <glyph glyph-name="liebiao" unicode="&#xe624;" 
d="M891 64h-508q-14 0 -24 -10t-10 -24.5t10 -24.5t24 -10h508q14 0 24.5 10t10.5 24.5t-10.5 24.5t-24.5 10zM891 334h-508q-14 0 -24 -10t-10 -24.5t10 -24.5t24 -10h508q14 0 24.5 10t10.5 24.5t-10.5 24.5t-24.5 10zM383 535h508q14 0 24.5 10t10.5 24.5t-10.5 25
t-24.5 10.5h-508q-14 0 -24 -10.5t-10 -25t10 -24.5t24 -10zM220 648h-86q-15 0 -25 -10t-10 -25v-86q0 -15 10 -25t25 -10h86q14 0 24.5 10t10.5 25v86q0 15 -10.5 25t-24.5 10zM220 378h-86q-15 0 -25 -10.5t-10 -24.5v-87q0 -14 10 -24t25 -10h86q14 0 24.5 10t10.5 24
v87q0 14 -10.5 24.5t-24.5 10.5zM220 107h-86q-15 0 -25 -10t-10 -24v-87q0 -14 10 -24.5t25 -10.5h86q14 0 24.5 10.5t10.5 24.5v87q0 14 -10.5 24t-24.5 10z" />
    <glyph glyph-name="tubiao3" unicode="&#xe6e3;" 
d="M437 359h-353q-8 0 -14 6t-6 14v348q0 8 6 14t14 6h353q9 0 15 -6t6 -14v-348q0 -8 -6 -14t-15 -6zM105 400h312v306h-312v-306zM437 -115h-353q-8 0 -14 6t-6 14v348q0 8 6 14t14 6h353q9 0 15 -6t6 -14v-348q0 -8 -6 -14t-15 -6zM105 -74h312v306h-312v-306zM905 359
h-353q-8 0 -14 6t-6 14v348q0 8 6 14t14 6h353q9 0 15 -6t6 -14v-348q0 -8 -6 -14t-15 -6zM573 400h312v306h-312v-306zM717 -117q-84 0 -144 59.5t-60 144t60 144t144 59.5t144 -59.5t60 -144t-60 -144t-144 -59.5zM716.5 250q-67.5 0 -115 -48t-47.5 -115.5t47.5 -115.5
t115 -48t115.5 48t48 115.5t-48 115.5t-115.5 48zM939 -147q-8 0 -14 5l-90 86q-7 6 -7 14.5t6 14.5t14.5 6.5t14.5 -5.5l91 -86q6 -6 6 -14.5t-6 -14.5t-15 -6z" />
    <glyph glyph-name="tubiaozitihua04" unicode="&#xe73a;" 
d="M807 456l-84 218l-659 -253l190 -495v0h706v530h-153zM744 456h-425l370 142zM140 387l114 44v-341zM313 -15v412h588v-412h-588v0zM785 238l-47 -16l-41 77l-132 -190l-70 45l-111 -120h464zM442 275zM387 275q0 23 16 39.5t39.5 16.5t39.5 -16.5t16 -39.5t-16 -39.5
t-39.5 -16.5t-39.5 16.5t-16 39.5z" />
    <glyph glyph-name="rili" unicode="&#xe62f;" 
d="M290 584q19 0 31.5 13t12.5 33v43v0v0v43q0 19 -12 32q-20 21 -48 10.5t-28 -40.5q-1 -19 0 -45v-42q0 -20 12.5 -33.5t31.5 -13.5zM737.5 583q18.5 0 31 13.5t12.5 32.5v43v0v0v43q0 20 -11 32q-21 22 -49 11t-28 -41v-45v-42q0 -20 13 -33.5t31.5 -13.5zM544 255h118
v-87h-118v87zM723 374h117v-87h-117v87zM723 255h117v-87h-117v87zM365 136h118v-88h-118v88zM544 136h117v-87h-117v87zM723 136h117v-87h-117v87zM186 136h118v-88h-118v88v0zM187 255h117v-88h-117v88v0zM544 374h117v-87h-117v87zM365 255h118v-87h-118v87zM365 374h118
v-87h-118v87zM942 673h-110v-15q-1 -40 -26 -68t-63 -31h-7t-8 1q-37 3 -62 31.5t-25 67.5v14h-258v-15q0 -42 -27.5 -70.5t-67.5 -28.5t-68 29t-28 71v14h-110q-8 0 -13 -5t-5 -12v-739q0 -7 5 -12t13 -5h860q8 0 13 5t5 12v739q0 7 -5 12t-13 5zM907 -42h-787v24v28v430
h787v-430v0v-52v0v0z" />
    <glyph glyph-name="rili1" unicode="&#xe704;" 
d="M870 467h-102v46v0v2q0 11 -7.5 18.5t-18 7.5t-18 -7.5t-7.5 -18.5v-2v0v-46h-409v46v0v2q0 11 -7.5 18.5t-18.5 7.5t-18.5 -7.5t-7.5 -18.5q0 -1 1 -2h-1v-46h-102q-32 0 -54.5 -22.5t-22.5 -53.5v-461q0 -32 22.5 -54.5t54.5 -22.5h716q32 0 54.5 22.5t22.5 54.5v461
q0 31 -22.5 53.5t-54.5 22.5zM870 416q11 0 18.5 -7.5t7.5 -17.5v-81h-128v106h102zM717 416v-106h-409v106h409zM154 416h102v-106h-128v81q0 10 7.5 17.5t18.5 7.5zM870 -95h-716q-11 0 -18.5 7.5t-7.5 17.5v329h768v-329q0 -10 -7.5 -17.5t-18.5 -7.5z" />
    <glyph glyph-name="android" unicode="&#xe61b;" 
d="M839.5 455q-22.5 0 -38.5 -16t-16 -39v-216q0 -23 16 -39.5t38.5 -16.5t38.5 16.5t16 39.5v216q0 23 -16 39t-38.5 16zM182.5 455q-22.5 0 -38.5 -16t-16 -39v-216q0 -23 16 -39.5t38.5 -16.5t38.5 16.5t16 39.5v216q0 23 -16 39t-38.5 16zM270 454v-395
q0 -18 12.5 -30.5t29.5 -12.5h49v-120q0 -23 16 -39.5t38.5 -16.5t38.5 16.5t16 39.5v120h84v-120q0 -23 16 -39.5t39 -16.5t38.5 16.5t15.5 39.5v120h49q18 0 30 12.5t12 30.5v395h-484zM626 658l45 65q5 7 -1.5 11.5t-11.5 -2.5l-46 -68q-48 19 -101 19t-101 -19l-46 68
q-5 7 -11 2.5t-2 -11.5l45 -65q-54 -25 -88.5 -70t-38.5 -99h484q-4 54 -38.5 99t-88.5 70zM409 556q-11 0 -19 8t-8 19t8 18.5t19 7.5t19 -7.5t8 -18.5t-8 -19t-19 -8zM617 556q-11 0 -19 8t-8 19t8 18.5t19 7.5t18.5 -7.5t7.5 -18.5t-7.5 -19t-18.5 -8z" />
    <glyph glyph-name="icon46" unicode="&#xe636;" 
d="M155 -147h714v90h-714v-90zM691 434v313h-358v-313h-178v-45l357 -312l357 312v45h-178z" />
    <glyph glyph-name="zhuzhuangtu" unicode="&#xe626;" 
d="M64 -78h895v-70h-895v70zM64 747h70v-895h-70v895zM234 412h165v-448h-165v448zM738 524h165v-560h-165v560zM483 577h164v-613h-164v613z" />
    <glyph glyph-name="xiangzuo" unicode="&#xe632;" 
d="M395 296l378 378l-74 74l-450 -450l450 -450l72 72z" />
    <glyph glyph-name="xinlangweibo" unicode="&#xe617;" 
d="M758 328q-17 4 -22.5 11t-1.5 13l4 5q2 3 4 7.5t6.5 18t5 26.5t-5 29.5t-18.5 29.5q-16 17 -42.5 22t-52.5 1t-50 -10.5t-38 -13.5l-15 -6q-12 -4 -19.5 -5t-12 0.5t-6.5 3.5t-1.5 8.5t1 10.5t3 14.5t3.5 16.5q0 17 -2.5 32t-12.5 31.5t-26.5 25t-47 8t-71.5 -14.5
q-40 -13 -82 -41t-73.5 -57.5t-57 -57.5t-39.5 -46l-13 -18q-76 -101 -75 -193l1 -9q6 -56 33.5 -100t65.5 -71.5t89.5 -47t99 -28.5t100.5 -13q87 -7 179.5 13.5t173 71t113.5 120.5q19 42 19.5 78t-12 58.5t-33 40t-38.5 25.5t-33 11zM401 -35q-125 -6 -214 49t-89 139
q0 83 88.5 143.5t214.5 65.5q129 6 216.5 -42t87.5 -131q0 -85 -89.5 -152t-214.5 -72zM368 289q-35 -4 -61.5 -16.5t-42 -27.5t-26 -34.5t-14.5 -35.5t-5 -32.5t-1 -22.5t1 -9v0v-5.5t2 -13.5t6.5 -19t14 -20t22.5 -18q47 -25 97 -26t89 18.5t66 53.5q15 19 20.5 48
t-2.5 59t-26.5 55t-55 38t-84.5 8zM325.5 67q-23.5 -3 -40.5 9t-17 32t15.5 37t38.5 20q27 2 43.5 -11t16.5 -33t-16.5 -35.5t-40 -18.5zM425 152q-8 -6 -16.5 -5.5t-13.5 7.5q-4 7 -2 17t9 15q10 7 18.5 6t13 -8.5t2 -16.5t-10.5 -15zM841 397q10 0 17.5 6.5t9.5 16.5v3
q14 130 -88 152q-34 7 -64 1q-11 0 -19 -8t-8 -19.5t8 -19.5t19 -8q37 7 58 0t29.5 -23t10.5 -32.5t1 -28.5l-2 -13q0 -11 8 -19t20 -8zM820 720q-58 14 -138 -1q0 -1 -1.5 -1.5l-1.5 -0.5l-1 -1v0q-13 -3 -21.5 -14t-8.5 -25q0 -16 12 -28t29 -12q21 3 36 9q6 0 20.5 1.5
t38.5 -4.5t48 -15t49.5 -30.5t42.5 -50.5q31 -69 13 -133q-8 -20 -8 -39q0 -16 11.5 -26t28 -10t26 6t12.5 28v0q22 65 17 117.5t-23 91.5t-50 68t-64 45.5t-67 24.5z" />
    <glyph glyph-name="qqkongjian" unicode="&#xe7dc;" 
d="M1024 448q0 7 -0.5 8t-5.5 1q-3 -1 -5 -1h-114h-193l-45 81l-125 240h-22l-114 -240l-45 -81h-193h-162v-5l64 -45l179 -159l-40 -363q0 -8 3.5 -9.5t21.5 -1.5l296 181l295 -181q9 0 12 1t11 10l-56 363l170 146zM276 100l328 268l-306 53h465l-283 -257l295 -64h-499z
" />
    <glyph glyph-name="xiala" unicode="&#xe61f;" 
d="M80 461q11 9 46.5 38t59.5 50q144 -142 336 -329q60 56 169.5 161.5t166.5 158.5q20 -18 57 -50.5t49 -43.5l-1 -1l-1 -1l-1 -1l-1 -1l-1 -1l-1 -1l-1 -1l-1 -1l-1 -1l-1 -1l-1 -1l-1 -1l-1 -1l-1 -1h-1l-1 -1l-1 -1l-1 -1l-1 -1l-1 -1l-1 -1l-1 -1l-1 -1l-1 -1l-1 -1
l-1 -1l-1 -1l-1 -1h-1l-1 -1l-1 -1l-1 -1l-1 -1l-1 -1l-1 -1l-1 -1l-1 -1l-1 -1l-1 -1l-1 -1l-1 -1l-1 -1h-1l-1 -1l-1 -1l-1 -1l-1 -1l-1 -1l-1 -1l-1 -1l-1 -1l-1 -1l-1 -1l-1 -1l-1 -1l-1 -1l-1 -1h-1l-1 -1l-1 -1l-1 -1l-1 -1l-1 -1l-1 -1l-1 -1l-1 -1l-1 -1l-1 -1
l-1 -1l-1 -1l-1 -1h-1l-1 -1l-1 -1l-1 -1l-1 -1l-1 -1l-1 -1l-1 -1l-1 -1l-1 -1l-1 -1l-1 -1l-1 -1l-1 -1h-1l-1 -1l-1 -1l-1 -1l-1 -1l-1 -1l-1 -1l-1 -1l-1 -1l-1 -1l-1 -1l-1 -1l-1 -1l-1 -1h-1l-1 -1l-1 -1l-1 -1l-1 -1l-1 -1l-1 -1l-1 -1l-1 -1l-1 -1l-1 -1l-1 -1
l-1 -1l-1 -1h-1l-1 -1l-1 -1l-1 -1l-1 -1l-1 -1l-1 -1l-1 -1l-1 -1l-1 -1l-1 -1l-1 -1l-1 -1l-1 -1h-1l-1 -1l-1 -1l-1 -1l-1 -1l-1 -1l-1 -1l-1 -1l-1 -1l-1 -1l-1 -1l-1 -1l-1 -1l-1 -1h-1l-1 -1l-1 -1l-1 -1l-1 -1l-1 -1l-1 -1l-1 -1l-1 -1l-1 -1l-1 -1l-1 -1l-1 -1
l-1 -1h-1l-1 -1l-1 -1l-1 -1l-1 -1l-1 -1l-1 -1l-1 -1l-1 -1l-1 -1l-1 -1l-1 -1l-1 -1l-1 -1h-1l-1 -1l-1 -1l-1 -1l-1 -1l-2 -2l-1 -1h-1l-1 -1l-1 -1l-1 -1l-1 -1l-1 -1l-1 -1l-1 -1l-1 -1l-1 -1l-1 -1l-1 -1l-1 -1l-1 -1h-1l-1 -1l-1 -1l-1 -1l-1 -1l-1 -1l-1 -1l-1 -1
l-1 -1l-1 -1l-1 -1l-1 -1l-1 -1h-1l-1 -1l-1 -1l-1 -1l-1 -1l-1 -1l-1 -1l-1 -1l-1 -1l-1 -1l-1 -1l-1 -1l-1 -1l-1 -1h-1l-1 -1l-1 -1l-1 -1l-1 -1l-1 -1l-1 -1l-1 -1l-1 -1l-1 -1l-1 -1l-1 -1l-1 -1h-1l-1 -1l-1 -1l-1 -1l-1 -1l-1 -1l-1 -1l-1 -1l-1 -1l-1 -1l-1 -1
l-1 -1l-1 -1l-1 -1h-1l-1 -1l-1 -1l-1 -1l-1 -1v-1l-1 -1l-1 -1l-1 -1l-1 -1l-1 -1l-1 -1l-1 -1h-1l-1 -1l-1 -1l-1 -1l-1 -1l-1 -1l-1 -1l-1 -1l-1 -1l-1 -1l-1 -1l-1 -1l-1 -1h-1l-1 -1l-1 -1l-1 -1l-1 -1l-1 -1l-1 -1l-1 -1l-1 -1l-1 -1l-1 -1l-1 -1l-1 -1l-1 -1h-1
l-1 -1l-1 -1l-1 -1l-1 -1l-1 -1l-1 -1l-1 -1l-1 -1l-1 -1l-1 -1l-1 -1l-1 -1h-1l-1 -1l-1 -1l-1 -1l-1 -1l-1 -1l-1 -1l-1 -1l-1 -1l-1 -1l-1 -1l-1 -1l-1 -1l-1 -1h-1l-1 -1l-1 -1l-1 -1l-1 -1l-1 -1l-1 -1l-1 -1l-1 -1l-1 -1l-1 -1l-1 -1l-1 -1h-1l-1 -1l-1 -1l-1 -1
l-1 -1l-1 -1l-1 -1l-1 -1l-1 -1l-1 -1l-1 -1l-1 -1l-1 -1h-1l-1 -1l-1 -1l-1 -1l-1 -1l-1 -1l-1 -1l-1 -1l-1 -1l-1 -1l-1 -1l-1 -1l-1 -1l-1 -1h-1l-1 -1l-1 -1l-1 -1l-1 -1l-1 -1l-1 -1l-1 -1l-1 -1l-1 -1l-1 -1l-1 -1l-1 -1h-1l-1 -1l-1 -1l-1 -1l-1 -1l-1 -1l-1 -1
l-1 -1l-1 -1l-1 -1l-1 -1l-1 -1l-1 -1l-1 -1h-1l-1 -1l-1 -1l-1 -1l-1 -1l-1 -1l-1 -1l-1 -1l-1 -1l-1 -1l-1 -1l-1 -1l-1 -1h-1l-1 -1l-1 -1l-1 -1l-1 -1l-1 -1l-1 -1l-1 -1l-1 -1l-1 -1l-1 -1l-1 -1l-1 -1l-1 -1h-1l-1 -1l-1 -1l-1 -1l-1 -1l-1 -1l-1 -1l-1 -1l-1 -1
l-1 -1l-1 -1l-1 -1l-1 -1h-1l-1 -1l-1 -1l-1 -1l-1 -1l-1 -1l-1 -1l-1 -1l-1 -1l-1 -1l-1 -1l-1 -1l-1 -1l-1 -1h-1l-1 -1l-1 -1l-1 -1l-1 -1l-1 -1l-1 -1l-1 -1l-1 -1l-1 -1l-1 -1q-28 24 -29 26z" />
    <glyph glyph-name="wifi" unicode="&#xe604;" 
d="M931 345q-130 124 -276 169t-293.5 2.5t-270.5 -173.5l-91 87q102 121 240 182.5t277 58t273.5 -65.5t233.5 -175zM833 247l-92 -88q-77 73 -153 99t-153 1.5t-150 -100.5l-87 83q148 160 315 161t320 -156zM511 37zM422 37.5q0 36.5 26 63t63 26.5t63 -26.5t26 -63
t-26 -63t-63 -26.5t-63 26.5t-26 63z" />
    <glyph glyph-name="pingguo" unicode="&#xe65a;" 
d="M884 449q-58 -37 -86 -95t-23.5 -115.5t40 -110.5t96.5 -81q-21 -53 -22 -56q-39 -89 -105 -161q-37 -40 -77.5 -49t-91.5 12q-41 17 -75 24q-47 9 -103 -14q-31 -13 -41 -17q-72 -26 -129 25q-54 49 -101 131q-92 161 -84 327q7 146 106 225q80 64 172 51q12 -2 23.5 -5
t28 -9t22.5 -8q13 -4 28 -10q38 -17 80 -1q68 26 102 34q65 15 134.5 -13t105.5 -84zM698 795q7 -55 -19.5 -111t-77 -91t-105.5 -31q-13 45 15.5 101t81.5 94.5t105 37.5z" />
    <glyph glyph-name="icon03" unicode="&#xe610;" 
d="M512 684q-159 0 -271.5 -112.5t-112.5 -271.5t112.5 -271.5t271.5 -112.5t271.5 112.5t112.5 271.5t-112.5 271.5t-271.5 112.5zM512 -20q-132 0 -226 94t-94 226t94 226t226 94t226 -94t94 -226t-94 -226t-226 -94zM661 206l-133 77v209q0 13 -9.5 22.5t-22.5 9.5
t-22.5 -9.5t-9.5 -22.5v-224q0 -13 24 -27q2 -3 15 -11l132 -80q11 -6 22.5 -2.5t17.5 14.5q7 12 2.5 24.5t-16.5 19.5z" />
    <glyph glyph-name="gongge" unicode="&#xe64a;" 
d="M290 764q0 16 -11.5 27.5t-27.5 11.5h-211q-16 0 -27.5 -11.5t-11.5 -27.5v-211q0 -16 11.5 -27.5t27.5 -11.5h210q17 0 28 11.5t11 27.5v211h1zM652 764q0 16 -11.5 27.5t-27.5 11.5h-210q-16 0 -27.5 -11.5t-11.5 -27.5v-211q0 -16 11.5 -27.5t27.5 -11.5h210
q16 0 27.5 11.5t11.5 27.5v211zM1023 764q0 16 -11.5 27.5t-27.5 11.5h-210q-17 0 -28 -11.5t-11 -27.5v-211q0 -16 11 -27.5t28 -11.5h210q16 0 27.5 11.5t11.5 27.5v211zM290 409q0 16 -11.5 27.5t-27.5 11.5h-211q-16 0 -27.5 -11.5t-11.5 -27.5v-210q0 -16 11.5 -27.5
t27.5 -11.5h210q17 0 28 11.5t11 27.5v210h1zM652 409q0 16 -11.5 27.5t-27.5 11.5h-210q-16 0 -27.5 -11.5t-11.5 -27.5v-210q0 -16 11.5 -27.5t27.5 -11.5h210q16 0 27.5 11.5t11.5 27.5v210zM1023 409q0 16 -11.5 27.5t-27.5 11.5h-210q-17 0 -28 -11.5t-11 -27.5v-210
q0 -16 11 -27.5t28 -11.5h210q16 0 27.5 11.5t11.5 27.5v210zM290 47q0 16 -11.5 27.5t-27.5 11.5h-211q-16 0 -27.5 -11.5t-11.5 -27.5v-211q0 -16 11.5 -27.5t27.5 -11.5h210q17 0 28 11.5t11 27.5v211h1zM652 47q0 16 -11.5 27.5t-27.5 11.5h-210q-16 0 -27.5 -11.5
t-11.5 -27.5v-211q0 -16 11.5 -27.5t27.5 -11.5h210q16 0 27.5 11.5t11.5 27.5v211zM1023 47q0 16 -11.5 27.5t-27.5 11.5h-210q-17 0 -28 -11.5t-11 -27.5v-211q0 -16 11 -27.5t28 -11.5h210q16 0 27.5 11.5t11.5 27.5v211z" />
    <glyph glyph-name="zhankai" unicode="&#xe7cb;" 
d="M930 501q-14 17 -36 17q-18 0 -31 -11l-335 -282l-336 282q-13 11 -31 11q-22 0 -36 -17q-13 -15 -11.5 -35t16.5 -32l366 -307q14 -12 32 -11q17 -1 31 11l366 307q15 12 16.5 32t-11.5 35z" />
    <glyph glyph-name="4" unicode="&#xe60f;" 
d="M86 740h37v-876h-37v876zM880 740h38v-876h-38v876zM86 740h832v-38h-832v38zM86 -98h832v-38h-832v38zM261 477h482v-38h-482v38zM261 324h482v-38h-482v38zM261 170h482v-37h-482v37z" />
    <glyph glyph-name="rili2" unicode="&#xe614;" 
d="M823 -82h-623q-30 0 -51 21t-21 51v552q0 29 21 50.5t51 21.5h95v-48h-119v-600h671v600h-120v48h96q30 0 51 -21.5t21 -50.5v-552q0 -30 -21 -51t-51 -21v0zM631 398h96v-72h-96v72v0zM727 86h-96v72h96v-72v0zM631 278h96v-72h-96v72v0zM667 494q-15 0 -25.5 10.5
t-10.5 25.5v120q0 14 10.5 25t25.5 11t25.5 -11t10.5 -25v-120q0 -15 -10.5 -25.5t-25.5 -10.5v0zM463 398h96v-72h-96v72v0zM559 86h-96v72h96v-72v0zM463 278h96v-72h-96v72v0zM415 614h192v-48h-192v48v0zM295 158h96v-72h-96v72v0zM295 278h96v-72h-96v72v0zM295 398h96
v-72h-96v72v0zM355 494q-14 0 -25 10.5t-11 25.5v120q0 14 11 25t25.5 11t25 -11t10.5 -25v-120q0 -15 -10.5 -25.5t-25.5 -10.5v0zM355 494z" />
    <glyph glyph-name="shuju" unicode="&#xe639;" 
d="M420 806h180v-664h-180v664zM180 498h180v-356h-180v356zM660 617h180v-475h-180v475zM64 79h896v-117h-896v117zM486 736h114v-594h-114v594zM246 431h114v-289h-114v289zM726 555h114v-413h-114v413zM123 20h837v-58h-837v58z" />
    <glyph glyph-name="xinwen" unicode="&#xe6cb;" 
d="M649 107h-365q-9 0 -15.5 6.5t-6.5 16t6.5 16t15.5 6.5h365q9 0 15.5 -6.5t6.5 -16t-6.5 -16t-15.5 -6.5zM649 220h-365q-9 0 -15.5 7t-6.5 16.5t6.5 16t15.5 6.5h365q9 0 15.5 -6.5t6.5 -16t-6.5 -16.5t-15.5 -7zM375 448q-9 0 -15.5 6.5t-6.5 16t6.5 16t15.5 6.5h183
q9 0 15.5 -6.5t6.5 -16t-6.5 -16t-15.5 -6.5h-183zM671 356.5q0 -9.5 -6.5 -16t-15.5 -6.5h-365q-9 0 -15.5 6.5t-6.5 16t6.5 16.5t15.5 7h365q9 0 15.5 -7t6.5 -16.5zM853 -53h-682q-29 0 -49 20t-20 49v568q0 29 20 49t49 20h341h205h68q19 0 32.5 -13.5t13.5 -32.5v-318
v-75v-130q0 -10 -7 -16.5t-16.5 -6.5t-16 6.5t-6.5 16.5v136v69v273q0 19 -13.5 32t-31.5 13h-274h-68h-205q-18 0 -31.5 -13t-13.5 -32v-524q0 -19 13.5 -32t31.5 -13h569h46h23q18 0 31.5 13t13.5 32v524q0 9 6.5 15.5t16 6.5t16.5 -6.5t7 -15.5v-524v-22q0 -29 -20 -49
t-49 -20z" />
    <glyph glyph-name="shezhi" unicode="&#xe625;" 
d="M644 -117v0q-25 0 -41 18q-16 17 -42.5 35t-48.5 18q-23 0 -49.5 -18t-41.5 -34q-16 -18 -41 -18q-11 0 -21 5h-1l-107 60l-1 1q-14 10 -19 27.5t2 33.5q10 23 10 43q0 47 -33 80t-80 33h-4v0q-14 0 -24 11t-13 30q-10 48 -10 85t10 85q3 19 13.5 30t23.5 10h4
q47 0 80 33.5t33 79.5q0 21 -10 44q-7 16 -2 33.5t19 27.5l2 1l112 62h1q10 4 21 4q25 0 41 -16q15 -17 41 -34t48 -17t47.5 17t41.5 33t40 16q12 0 21 -4l2 -1l108 -60l1 -1q15 -10 20 -27.5t-2 -33.5q-10 -23 -10 -44q0 -46 33 -79.5t80 -33.5h3q14 1 24.5 -10t13.5 -30
q9 -48 9 -85t-9 -85q-3 -19 -13.5 -30t-24.5 -11h-3q-47 0 -80 -33t-33 -80q0 -20 10 -43q7 -16 2 -33.5t-20 -27.5l-1 -1l-110 -61l-1 -1q-10 -4 -21 -4v0zM641 -65q1 -1 3 -1v0l103 57q-13 33 -13 63q0 66 45 113.5t110 50.5q8 45 8 75t-8 75q-65 3 -110 50.5t-45 112.5
q0 31 13 64l-101 56h-1q-2 0 -3 -1q-16 -16 -38 -32q-47 -33 -88 -33t-89 34q-21 16 -37 32q-2 1 -4 1h-1l-105 -57q14 -33 14 -64q0 -65 -45 -112.5t-110 -50.5q-8 -45 -8 -75t8 -75q65 -3 110 -50.5t45 -113.5q0 -30 -14 -63l100 -55v0h3q16 18 38 34q49 35 91 35t90 -36
q23 -16 39 -34zM512 143q-62 0 -106 44t-44 106.5t44 106.5t106 44t106 -44t44 -106.5t-44 -106.5t-106 -44zM512 393q-41 0 -70 -29t-29 -70.5t29 -70.5t70 -29t70 29t29 70.5t-29 70.5t-70 29z" />
    <glyph glyph-name="redian" unicode="&#xe635;" 
d="M268 347q-14 41 -23 85q-46 -30 -72 -92t-26 -125q0 -100 48.5 -185t132 -134.5t181.5 -49.5q73 0 139 28t117.5 80t79 119.5t27.5 141.5q0 128 -51 216v1q-26 53 -36 120q-117 -41 -95 -220l3 -26l-19 18q-131 127 -117 430q-177 -60 -206 -241q-17 -103 19 -271
q4 -18 5 -26l4 -20l-17 11q-57 33 -94 140v0zM433 154q-2 9 -7 27q-13 53 -20.5 85t-15 85t-6.5 96q2 77 27 134q30 66 93 106l15 9v-17q0 -186 59 -298t164 -118q-8 30 -12 65t-1 73t15 63l10 21l7 -22q4 -11 18 -43q15 -35 24 -58t19.5 -66t10.5 -81v-1v0
q-11 -142 -100 -234q-44 -45 -100 -69q-58 -25 -124 -25q-134 0 -227 93q-93 94 -96 235q-1 28 11 73t23 57l11 10l5 -14q1 -3 4 -11q8 -24 14 -39.5t22 -43t35 -44.5t51 -31.5t71 -16.5v0z" />
    <glyph glyph-name="pinglun" unicode="&#xe612;" 
d="M322 -92q-6 0 -11 2q-15 7 -15 24v111q0 11 -7.5 18t-17.5 7h-128q-32 0 -55 23t-23 55v467q0 32 23 54.5t55 22.5h738q32 0 55 -22.5t23 -54.5v-467q0 -32 -23 -55t-55 -23h-350q-9 0 -16 -6l-176 -150q-7 -6 -17 -6zM143 640q-11 0 -18 -7.5t-7 -17.5v-467q0 -11 7 -18
t18 -7h128q32 0 54.5 -23t22.5 -55v-54l133 113q21 19 50 19h350q11 0 18 7t7 18v467q0 10 -7 17.5t-18 7.5h-738z" />
    <glyph glyph-name="gerenzhongxin" unicode="&#xe615;" 
d="M470 168q-8 2 -25 -3t-19 -12q-2 -11 28 -17q149 -32 158 -58v-44h-222h-3h-3h-223v45q5 14 55 36t116 36h3q12 3 12 10v38q10 -2 20 -2h32q47 0 83.5 41.5t36.5 88.5v121q0 47 -35 82.5t-83 35.5h-32q-47 0 -81 -35.5t-34 -82.5v-121q0 -28 13 -56t35 -48v-46
q-45 -10 -82.5 -23.5t-65 -33.5t-26.5 -42v-42q0 -9 5.5 -20t11.5 -11l239 -1h2.5h3.5l239 1q7 0 11.5 11.5t4.5 20.5v41q0 17 -14.5 31.5t-43.5 25.5t-55 18t-62 15zM286 328v118q0 36 26 63.5t64 27.5h19q38 0 65.5 -27t27.5 -62v-120q0 -36 -30.5 -68.5t-68.5 -32.5h-12
q-38 0 -64.5 32t-26.5 69zM877 388h-250q-14 0 -14 -13t14 -13h250q17 0 17 13t-17 13zM627 464h250q17 0 17 13t-17 13h-250q-14 0 -14 -13t14 -13zM877 285h-250q-14 0 -14 -12.5t14 -12.5h250q17 0 17 12.5t-17 12.5z" />
    <glyph glyph-name="shoucang" unicode="&#xe621;" horiz-adv-x="1025" 
d="M778 -106q-18 0 -37 10l-207 108q-9 5 -21 5q-10 0 -20 -4l-206 -109q-18 -10 -39 -10q-38 0 -64 29q-25 28 -19 68l40 229q3 23 -13 39l-166 161q-18 17 -23.5 40t2 46t25.5 38t42 19l229 34q24 3 34 24l102 208q11 22 31 34.5t44 12.5t44 -12.5t31 -34.5l102 -208
q11 -21 34 -24l230 -34q23 -4 41 -19t26 -37q8 -23 2.5 -46t-22.5 -40l-165 -162q-17 -15 -14 -39l39 -228q7 -40 -18 -68q-24 -30 -64 -30zM765 -44q8 -3 12 -3q12 0 20 9q7 9 5 20l-39 228q-5 25 3 49.5t27 41.5l165 163q9 9 6 25q-5 15 -21 17l-229 34q-26 4 -46.5 18.5
t-31.5 37.5l-102 208q-6 13 -22 13q-14 0 -22 -14l-103 -207q-10 -22 -31 -37.5t-47 -18.5l-229 -34q-14 -3 -19 -17v-1q-5 -13 6 -24l166 -163q38 -36 29 -91l-39 -228q-2 -12 6 -19q7 -9 19 -9q5 0 11 2l207 109q20 12 47 12q24 0 47 -12z" />
    <glyph glyph-name="0065" unicode="&#xe62d;" 
d="M581 365q4 409 0 409q116 0 209 -53t145 -146.5t52 -209.5h-406v0zM954 282q0 -90 -35 -172t-94 -141.5t-140.5 -94.5t-171 -35t-170.5 35t-140 94.5t-94 141.5t-35 172t35 172t93.5 141t140 94t171.5 35q10 0 34 -1v-392h403q3 -25 3 -49v0zM918 295h-404v395
q-110 0 -204 -54.5t-148 -148.5t-54 -205t54 -205.5t148 -149t204 -54.5t203.5 54.5t148 149t54.5 205.5l-1 22l-1 -9v0v0z" />
    <glyph glyph-name="fanhuidingbu" unicode="&#xe605;" 
d="M888 239l-347 348q-6 6 -14 9q-2 1 -3 1q-5 1 -9 1q-3 1 -6 0q-15 -1 -26 -11v0l-347 -348q-12 -12 -12 -29t12 -29t29 -12t29 12l318 319l318 -319q12 -12 29 -12t29 12t12 29t-12 29z" />
    <glyph glyph-name="denglu01" unicode="&#xe686;" 
d="M510 776q69 0 132 -47t63 -93v-139q0 -50 -21 -111t-61 -93q-25 -20 -21 -51t32 -44l243 -115l2 -1t3.5 -1.5t4.5 -2t5 -4.5l4 -6t3 -8.5t1 -11.5v-54h-781v56q0 22 23 33l245 115q29 13 32.5 44t-20.5 51q-40 32 -62.5 93.5t-22.5 110.5v139q0 45 63.5 92.5t132.5 47.5z
M510 832q-60 0 -119 -29.5t-96 -75t-37 -91.5v-139q0 -58 26.5 -131.5t79.5 -116.5l-245 -116q-7 -2 -16 -7t-24.5 -20t-15.5 -28v-84q0 -23 16.5 -39.5t39.5 -16.5h781q24 0 40 16.5t16 39.5v84q0 14 -14 28t-28 21l-14 6l-243 116q53 41 78.5 113.5t25.5 134.5v139
q0 46 -37 91.5t-96 75t-118 29.5v0z" />
    <glyph glyph-name="shipin" unicode="&#xe606;" 
d="M179.5 479q14.5 0 24.5 10t10 24.5t-10 25t-24.5 10.5t-25 -10.5t-10.5 -25t10.5 -24.5t25 -10zM968 620q-17 11 -37 11q-21 0 -42 -11l-189 -91v32q0 45 -32.5 77.5t-77.5 32.5h-458q-45 0 -77.5 -32.5t-32.5 -77.5v-397q0 -45 32.5 -77t77.5 -32h458q45 0 77.5 32
t32.5 77v33l190 -93q20 -10 40.5 -10t37.5 10q34 21 34 70v376q0 49 -34 70zM951 550v-376q0 -20 -10 -27q-4 -2 -10 -2q-9 0 -19 5l-212 103v220l211 102q11 5 20 5q6 0 10 -3q10 -6 10 -27zM73 561q0 25 17 42t42 17h458q24 0 41.5 -17t17.5 -42v-397q0 -24 -17.5 -41.5
t-41.5 -17.5h-458q-25 0 -42 17.5t-17 41.5v397z" />
    <glyph glyph-name="shouyeshu" unicode="&#xe618;" 
d="M998 710q-119 38 -243 38q-134 0 -240 -38q-119 38 -241 38q-136 0 -240 -38q-15 -5 -15 -22v-640q0 -10 7 -17t16 -7q6 0 8 2q89 32 209 32q75 0 143.5 -9.5t102.5 -18.5h3q6 -4 14 -4q6 0 8 1q89 32 209 32q75 0 143.5 -9.5t102.5 -18.5h4q10 0 16.5 7t6.5 17v633
q0 17 -14 22zM497 68q-116 25 -240 25q-121 0 -204 -28v616q106 34 221 34q113 0 223 -34v-613zM979 68q-116 25 -240 25q-122 0 -205 -28v616q106 34 221 34q114 0 224 -34v-613zM142 564q-8 -1 -11.5 -7.5t-1.5 -14.5v0q5 -16 20 -13q144 31 250 1q7 -2 13 1.5t8 10.5
q2 8 -1.5 14.5t-10.5 7.5q-79 22 -183 12q-54 -5 -83 -12zM408 422q-79 23 -183 12q-45 -4 -83 -13q-8 -2 -11.5 -8.5t-1.5 -13.5v0q5 -16 20 -14q144 31 250 2q7 -2 13 1.5t8 10.5q2 9 -1 15.5t-11 7.5zM408 290q-79 23 -183 12q-45 -4 -83 -13q-8 -1 -11.5 -7.5
t-1.5 -14.5v0q5 -16 20 -13q144 31 250 1q7 -2 13 1.5t8 10.5q2 9 -1 15.5t-11 7.5zM623 564q-7 -1 -11 -7.5t-2 -14.5v0q5 -16 20 -13q144 31 251 1q6 -2 12 1.5t8 10.5q2 8 -1.5 14.5t-10.5 7.5q-78 22 -182 12q-54 -5 -84 -12zM889 422q-78 23 -182 12q-46 -4 -84 -13
q-7 -2 -11 -8.5t-2 -13.5v0q5 -16 20 -14q144 31 251 2q6 -2 12 1.5t8 10.5q2 9 -1 15.5t-11 7.5zM889 290q-78 23 -182 12q-46 -4 -84 -13q-7 -1 -11 -7.5t-2 -14.5v0q5 -16 20 -13q144 31 251 1q6 -2 12 1.5t8 10.5q2 9 -1 15.5t-11 7.5z" />
    <glyph glyph-name="yonghu" unicode="&#xe62e;" 
d="M691 341q82 91 82 224q0 128 -76.5 218.5t-184.5 90.5t-184.5 -90.5t-76.5 -218.5q0 -132 82 -224q-75 -15 -132.5 -40.5t-86 -49.5t-46.5 -48.5t-21.5 -36t-3.5 -14.5v-104q0 -42 56.5 -98t99.5 -56h626q43 0 99.5 56t56.5 98v104v0q0 3 -1.5 8.5t-9.5 20.5t-19.5 29.5
t-34.5 34t-51.5 36t-74 33t-99.5 27.5zM512 790q66 0 118.5 -64.5t52.5 -149.5t-53 -151.5t-118 -66.5t-118 66.5t-53 151.5t52.5 149.5t118.5 64.5zM896 110v0v-56q0 -21 -45 -48t-70 -27h-538q-25 0 -70 27t-45 48v56v40q65 46 174.5 87t210 41t209.5 -41t174 -87v-40z
" />
    <glyph glyph-name="yijianfankui" unicode="&#xe634;" 
d="M929 482q-10 0 -17 -7t-7 -16v-415q0 -20 -13.5 -33.5t-32.5 -13.5h-702q-19 0 -33 13.5t-14 33.5v677q0 19 14 32.5t33 13.5h452q10 0 16.5 7t6.5 16.5t-6.5 16.5t-16.5 7h-456q-37 0 -63 -26t-26 -63v-686q0 -37 26 -63t63 -26h710q37 0 63 26t26 63v420q0 9 -6.5 16
t-16.5 7v0v0v0zM494 182l445 445q20 20 18.5 49.5t-23.5 52.5l-42 42q-22 22 -52 23.5t-50 -18.5l-445 -445l149 -149v0v0zM823 743q8 7 19 6.5t20 -8.5l42 -42q8 -9 8.5 -20t-6.5 -19l-49 -49l-82 83l48 49v0v0zM821 576l-330 -331l-83 83l332 331l81 -83v0v0v0zM345 330
l-45 -167q-4 -12 5 -21q9 -8 20 -5l168 46l-34 34l-109 -30l29 109l-34 34v0v0zM345 330z" />
    <glyph glyph-name="lianxiwomen" unicode="&#xe637;" horiz-adv-x="1172" 
d="M806 67h-378v58h402l112 -112v112h171v584h-85v59h72q30 0 51 -21.5t21 -50.5v-557q0 -30 -21 -51t-51 -21h-100v-195l-194 195v0zM171 195h-99q-30 0 -51 21.5t-21 50.5v557q0 30 21 51t51 21h814q29 0 50.5 -21t21.5 -51v-557q0 -29 -21.5 -50.5t-50.5 -21.5h-520
l-195 -195v195v0zM230 141l112 113h557v584h-841v-584h172v-113v0zM693 495q-21 0 -36 15t-15 36t15 35.5t36 14.5t36 -14.5t15 -35.5t-15 -36t-36 -15v0zM479 495q-21 0 -36 15t-15 36t15 35.5t36 14.5t35.5 -14.5t14.5 -35.5t-14.5 -36t-35.5 -15v0zM265 495q-21 0 -36 15
t-15 36t15 35.5t36 14.5t35.5 -14.5t14.5 -35.5t-14.5 -36t-35.5 -15v0zM265 495z" />
    <glyph glyph-name="xuanzhong" unicode="&#xe631;" 
d="M891 754l-475 -476l-283 282l-132 -132l283 -282v0l132 -132l607 608z" />
    <glyph glyph-name="appreciate" unicode="&#xe608;" 
d="M905 445q-21 41 -58 61q-25 14 -53 14h-115v181q0 36 -20 69q-19 33 -51 50q-23 11 -47 11q-8 0 -23 1h-19h-1q-15 0 -25 -2q-16 -2 -26 -9l-14 -9l-6 -15q-5 -13 -5 -30v-220q0 -14 -8 -25v0q-8 -12 -24 -21q-17 -11 -42 -19v27h-279v-572h279v65q17 -27 40 -44v0v0
q30 -21 66 -22h320q28 0 53 14v0q24 13 43 36q14 19 25 46.5t11 52.5q0 32 1 263v7q0 49 -22 90zM876 348v0h-153v-16h153q-1 -54 -1 -110h-152v-15h152v-106h-152v-15h152v-1q0 -16 -8 -35.5t-18 -31.5q-11 -15 -26 -23q-14 -7 -29 -7h-320q-19 0 -37 12q-18 13 -30 37
l-8 16h-30v376q40 11 68 28q25 15 39 35q17 25 17 56v143v76q0 8 2 11v0q1 1 6 2q6 1 17 1h1v0q6 0 19.5 -0.5t22.5 -0.5q12 0 24 -6q18 -9 30 -30q13 -21 13 -43v-233h166q15 0 29 -7q23 -12 37 -40q16 -29 16 -66v-7z" />
    <glyph glyph-name="biaoqian" unicode="&#xe619;" horiz-adv-x="1054" 
d="M1027 504l-29 185q-9 52 -50 93t-94 51l-185 28q-3 0 -12.5 2.5t-15.5 2.5q-43 0 -86 -17t-71 -45l-398 -399q-43 -43 -43 -104.5t43 -104.5l275 -275q45 -46 107 -46t107 46l398 398q72 84 54 185v0zM784 553q-34 0 -58 24.5t-24 58t24 58t58 24.5t58.5 -24.5t24.5 -58
t-24.5 -58t-58.5 -24.5z" />
    <glyph glyph-name="sjiantou02" unicode="&#xe61d;" 
d="M871 414l-351 344q-11 11 -26.5 11t-26.5 -11t-11 -26.5t11 -26.5l326 -320l-326 -321q-11 -10 -11 -25.5t11 -26.5t26.5 -11t26.5 11l351 344q12 12 11 29q1 17 -11 29v0zM607 385q1 17 -11 29l-350 344q-11 11 -27 11t-27 -11t-11 -26.5t11 -26.5l326 -320l-326 -321
q-11 -10 -11 -25.5t11 -26.5t27 -11t27 11l350 344q12 12 11 29v0zM607 385z" />
    <glyph glyph-name="sjiantou04-copy" unicode="&#xe61e;" 
d="M153 354l351 -344q11 -11 26.5 -11t26.5 11t11 26.5t-11 26.5l-326 320l326 321q11 10 11 25.5t-11 26.5t-26.5 11t-26.5 -11l-351 -344q-12 -12 -11 -29q-1 -17 11 -29v0zM417 383q-1 -17 11 -29l350 -344q11 -11 27 -11t27 11t11 26.5t-11 26.5l-326 320l326 321
q11 10 11 25.5t-11 26.5t-27 11t-27 -11l-350 -344q-12 -12 -11 -29v0zM417 383z" />
    <glyph glyph-name="zhexiantu" unicode="&#xe665;" 
d="M514 242v-208q0 -6 4 -10t10 -4h105q6 0 10.5 4t4.5 10v277l-107 -92zM65 34q0 -6 4 -10t10 -4h105q6 0 10 4t4 10v212l-133 -110v-102zM289 321v-287q0 -6 4.5 -10t9.5 -4h106q6 0 10 4t4 10v285l-67 57zM738 34q0 -6 4.5 -10t10.5 -4h105q6 0 10 4t4 10v471l-134 -116
v-355zM715 748q-3 0 -4 -3t1 -5l101 -99l-272 -234l-185 157l-292 -241v-104l292 241l185 -157l328 283l83 -82q2 -2 5 -1t3 4v236q0 2 -1.5 3.5t-3.5 1.5h-240z" />
    <glyph glyph-name="shipin1" unicode="&#xe659;" 
d="M862 -16h-703q-40 0 -68.5 28t-28.5 68v606q0 40 28.5 68.5t68.5 28.5h703q40 0 68.5 -28.5t28.5 -68.5v-606q0 -40 -28.5 -68t-68.5 -28v0zM886 662q0 20 -14 34t-35 14h-653q-21 0 -35 -14t-14 -34v-557q0 -20 14 -34.5t35 -14.5h653q21 0 35 14.5t14 34.5v557v0z
M650 352l-185 -117q-20 -13 -41.5 -2.5t-21.5 33.5v235q0 22 21.5 32.5t41.5 -1.5l185 -118q18 -11 18 -31t-18 -31v0zM650 352z" />
    <glyph glyph-name="diannaoban" unicode="&#xe633;" 
d="M816 727h-607q-33 0 -57 -23.5t-24 -56.5v-425q0 -34 24 -57.5t57 -23.5h607q33 0 57 23.5t24 57.5v425q0 33 -24 56.5t-57 23.5zM512.5 161q-16.5 0 -28.5 12t-12 28.5t12 28.5t28.5 12t28.5 -12t12 -28.5t-12 -28.5t-28.5 -12zM836 262h-647v405h647v-405zM654 101
h-283q-13 0 -22 -9t-9 -21.5t9 -21.5t22 -9h283q12 0 21 9t9 21.5t-9 21.5t-21 9z" />
    <glyph glyph-name="top" unicode="&#xe61c;" 
d="M133 279h92v-240h44v240h93v39h-229v-39zM133 279zM518 324q-67 0 -100 -42q-34 -38 -34 -103.5t34 -103.5q37 -42 100 -42t101 42q36 41 36 103q0 68 -36 104q-34 42 -101 42v0zM585 100q-24 -28 -67 -28t-67 28q-22 32 -22 76q0 48 22 75q24 28 67 28t67 -28
q23 -26 23 -78q0 -47 -23 -73v0zM585 100zM814 318h-114v-279h45v106h69q104 0 104 87q-4 86 -104 86v0zM854 195q-12 -11 -45 -11h-67v95h67q33 0 45 -11q13 -14 13 -36q0 -26 -13 -37v0zM854 195zM538 691l-238 -238h464zM538 691z" />
    <glyph glyph-name="yingyeshuju" unicode="&#xe63a;" 
d="M896 814h-770q-35 0 -60.5 -25t-25.5 -59v-564q0 -34 25.5 -58.5t60.5 -24.5h299v-84h-63q-9 0 -14.5 -6t-5.5 -14t6 -14t14 -6h300q9 0 14.5 6t5.5 14q0 9 -6 14.5t-14 5.5h-63v84h299q35 0 60.5 24.5t25.5 58.5v564q-2 34 -27.5 59t-60.5 25zM554 -1h-86v84h86v-84z
M939 166q0 -18 -12.5 -29.5t-30.5 -11.5h-770q-18 0 -30.5 11.5t-12.5 29.5v42h856v-42zM939 250h-856v480q0 18 12.5 30t30.5 12h770q18 0 30.5 -12t12.5 -30v-480zM721 640h-53q-10 0 -10 -10v-298q0 -10 10 -10h53q10 0 10 10v298q0 10 -10 10zM599 511h-53
q-11 0 -11 -10v-169q0 -10 11 -10h53q10 0 10 10v169q0 10 -10 10zM476 581h-53q-10 0 -10 -10v-239q0 -10 10 -10h53q11 0 11 10v239q0 10 -11 10zM354 439h-53q-10 0 -10 -10v-97q0 -10 10 -10h53q10 0 10 10v97q0 10 -10 10z" />
    <glyph glyph-name="fangzi" unicode="&#xe6d3;" 
d="M967 349l-413 408q-11 11 -26.5 11t-26.5 -11l-413 -408q-6 -6 -6 -13.5t6 -13.5q13 -13 25 0l88 88v-346q0 -15 12.5 -23t31.5 -8h169q31 0 31 31v206q4 0 5.5 2t1 3t-0.5 2h145v-6l-1 -1v-206q0 -15 12.5 -23t31.5 -8h168q32 0 32 31v357l101 -99q6 -5 14 -5t13.5 5.5
t5.5 13t-6 13.5zM801 71h-162l-1 -1q0 -2 -3 -2h-3v202q0 19 -8.5 31.5t-22.5 12.5h-150q-15 0 -29.5 -14t-14.5 -30v-199h-162v-1q0 -1 -1.5 -1.5t-4.5 -0.5v379l287 284l275 -273v-387z" />
    <glyph glyph-name="24tv" unicode="&#xe670;" 
d="M981 107h-938q-9 0 -15.5 6t-6.5 15v597q0 9 6.5 15.5t15.5 6.5h938q9 0 15.5 -6.5t6.5 -15.5v-597q0 -9 -6.5 -15t-15.5 -6zM960 704h-896v-555h896v555zM448 555q6 0 12 -5l166 -103q14 -5 14 -20q0 -10 -9 -17l-170 -106q-6 -5 -13 -5q-9 0 -15 6t-6 15v213
q0 9 6 15.5t15 6.5zM320 64h384q9 0 15 -6t6 -15t-6 -15.5t-15 -6.5h-384q-9 0 -15 6.5t-6 15.5t6 15t15 6z" />
    <glyph glyph-name="hezuohuoban" unicode="&#xe6cc;" horiz-adv-x="1581" 
d="M180 -128q-8 0 -17 4q-20 9 -16 35q16 92 61 169q81 138 226 204q19 9 37 15h0.5t0.5 1q6 1 8 5q2 2 2 5q-1 3 -3 4q-133 85 -150 232q-17 142 79 247q44 49 104.5 76t126.5 27q137 0 229 -101q101 -110 80 -257q-20 -142 -149 -224q-3 -3 -3 -7q1 -4 5 -5q24 -9 40 -16
q194 -90 268 -289q14 -39 22 -88q3 -12 -5 -23t-21 -13q-4 -1 -6 -1v0q-12 0 -21 7t-11 18q-16 82 -50 142q-95 168 -275 210q-56 13 -110 13q-161 0 -290 -119q-101 -93 -128 -234v-1q-4 -17 -9 -23q-10 -13 -25 -13v0zM639 836q-104 0 -178 -74t-74.5 -178.5t72.5 -178.5
q74 -75 180 -75q105 0 179 74t74 179t-74 179t-179 74v0v0zM1400 -120q-13 0 -22 9q-10 10 -8 25q7 114 -52 206q-79 126 -225 157q-9 2 -28 4q-11 1 -17 2q-10 2 -17.5 9.5t-8.5 17.5q-1 25 21 32q66 21 112 79q48 59 53 133q8 107 -61 186q-53 60 -133 78q-26 6 -67 6
q-10 0 -18 6.5t-10 16.5q-3 13 5 23q8 11 24 12h14q63 0 117 -24q145 -64 180 -212q36 -158 -76 -281q-4 -5 -14 -15q-8 -6 -12 -10l-5 -5q-3 -2 -2.5 -6t4.5 -5q38 -14 67 -30q122 -68 178 -195q37 -86 32 -186q-2 -27 -24 -33h-7v0zM645 -119q-38 38 -117 115v0
q45 76 95 161l22 38l60 -102q31 -52 57 -96v0v-1v0q-44 -43 -117 -115v0zM645 -119z" />
    <glyph glyph-name="icon02" unicode="&#xe630;" 
d="M878 778h-732q-44 0 -75 -31t-31 -75v-576q0 -44 31 -75t75 -31h732q44 0 75 31t31 75v576q0 44 -31 75t-75 31zM924 96q0 -19 -13.5 -32.5t-32.5 -13.5h-732q-19 0 -32.5 13.5t-13.5 32.5v576q0 19 13.5 32.5t32.5 13.5h732q19 0 32.5 -13.5t13.5 -32.5v-576v0zM181 626
h662v-62h-662v62zM542 499h301v-62h-301v62zM542 348h301v-62h-301v62zM542 198h246v-62h-246v62zM181 498h286v-362h-286v362z" />
    <glyph glyph-name="toupiao" unicode="&#xe63d;" horiz-adv-x="1033" 
d="M229 84h-134v342h134v-342zM460 84h-134v693h134v-693zM692 84h-134v482h134v-482v0zM790 258h134v-174h-134v174zM2 -9h1015v-60h-1015v60z" />
    <glyph glyph-name="xinwen1" unicode="&#xe609;" 
d="M37 55h950v658h-950v-658zM37 750h950q16 0 26.5 -11t10.5 -26v-658q0 -15 -10.5 -26t-26.5 -11h-950q-16 0 -26.5 11t-10.5 26v658q0 15 10.5 26t26.5 11zM146 347h293v220h-293v-220zM146 603h293q15 0 25.5 -10.5t10.5 -25.5v-220q0 -15 -10.5 -25.5t-25.5 -10.5h-293
q-15 0 -25.5 10.5t-10.5 25.5v220q0 15 10.5 25.5t25.5 10.5zM567 567h329q7 0 12.5 -5.5t5.5 -13t-5.5 -13t-12.5 -5.5h-329q-7 0 -12.5 5.5t-5.5 13t5 13t13 5.5zM567 384h329q7 0 12.5 -5.5t5.5 -13t-5.5 -13t-12.5 -5.5h-329q-7 0 -12.5 5.5t-5.5 13t5 13t13 5.5z
M128 201h768q8 0 13 -5.5t5 -12.5q0 -8 -5 -13t-13 -5h-768q-8 0 -13 5t-5 13q0 7 5 12.5t13 5.5z" />
    <glyph glyph-name="tubiaozhexiantu-copy" unicode="&#xe646;" 
d="M929 0h-864v272l185 185q19 -9 39.5 -9t39.5 9l129 -129q-9 -19 -9 -40q0 -40 28.5 -68t68 -28t67.5 28t28 68q0 20 -8 40l317 317q10 10 10 25t-10 25t-25 10t-25 -10l-318 -318q-18 7 -37 7t-36 -7l-131 131q7 17 7 36q0 40 -28 68t-67.5 28t-68 -28t-28.5 -68
q0 -19 8 -36l-136 -136v364q0 13 -9 22.5t-22.5 9.5t-23 -9.5t-9.5 -22.5v-437q-1 -7 0 -13v-318q0 -13 9.5 -22.5t22.5 -9.5h896q14 0 23 9.5t9 22.5t-9 22.5t-23 9.5v0zM545.5 320q13.5 0 22.5 -9.5t9 -22.5t-9 -22.5t-22.5 -9.5t-23 9.5t-9.5 22.5t9.5 22.5t23 9.5z
M289.5 576q13.5 0 22.5 -9.5t9 -22.5t-9 -22.5t-22.5 -9.5t-23 9.5t-9.5 22.5t9.5 22.5t23 9.5z" />
    <glyph glyph-name="xinwengonggao" unicode="&#xe69b;" 
d="M865 761h-706q-39 0 -66.5 -28t-27.5 -67v-564q0 -39 27.5 -67t66.5 -28h706q39 0 66.5 28t27.5 67v564q0 39 -27.5 67t-66.5 28zM196 590q0 19 13.5 33t33.5 14h159q19 0 33 -14t14 -33v-236q0 -19 -14 -33t-33 -14h-159q-20 0 -33.5 14t-13.5 33v236zM852 180
q0 -14 -10 -24t-24 -10h-588q-14 0 -24 10t-10 24v0q0 14 10 24t24 10h588q14 0 24 -10t10 -24v0zM852 341q0 -14 -10 -24t-24 -10h-254q-14 0 -24 10t-10 24v1q0 14 10 24t24 10h254q14 0 24 -10t10 -24v-1zM852 472q0 -14 -10 -24t-24 -10h-254q-14 0 -24 10t-10 24v0
q0 14 10 24t24 10h254q14 0 24 -10t10 -24v0zM852 602q0 -14 -10 -24t-24 -10h-254q-14 0 -24 10t-10 24v1q0 14 10 24t24 10h254q14 0 24 -10t10 -24v-1z" />
    <glyph glyph-name="pinglun1" unicode="&#xe63e;" horiz-adv-x="1218" 
d="M43 -128q-11 0 -21 6q-22 12 -22 37v836q0 63 37.5 104t95.5 41h928q63 0 109.5 -43.5t46.5 -101.5v-621q0 -103 -156 -103h-749l-246 -149q-10 -6 -23 -6zM133 809q-25 0 -35.5 -18.5t-10.5 -39.5v-759l190 115q11 6 23 6h761q69 0 69 17v621q0 21 -21.5 39.5
t-47.5 18.5h-928zM956 592q0 18 -12.5 30.5t-30.5 12.5h-609q-18 0 -30.5 -12.5t-12.5 -30.5t12.5 -31t30.5 -13h609q18 0 30.5 13t12.5 31zM783 331q0 18 -13 30.5t-31 12.5h-435q-18 0 -30.5 -12.5t-12.5 -30.5t12.5 -31t30.5 -13h435q18 0 31 13t13 31z" />
    <glyph glyph-name="shipin2" unicode="&#xe638;" 
d="M781 668q0 18 -13.5 31.5t-31.5 13.5h-625q-18 0 -31 -13.5t-13 -31.5v-536q0 -18 13 -31t31 -13h625q18 0 31.5 13t13.5 31v157l178 -179v580l-178 -178v156v0zM334 244v312l246 -156l-246 -156v0z" />
    <glyph glyph-name="tubiaopengyouquan" unicode="&#xe616;" 
d="M656 875q-72 21 -144 21q-97 0 -188 -36l332 -332v347zM368 -107q71 -21 144 -21q97 0 188 36l-332 332v-347zM961 630q-41 74 -104 132t-141 92v-470zM63 138q41 -74 104 -132t142 -92v471zM1003 240q21 71 21 144q0 97 -36 188l-332 -332h347zM21 528q-21 -71 -21 -144
q0 -97 36 -188l332 332h-347zM982 181h-470l246 -246q75 41 132.5 104t91.5 142zM266 833q-74 -41 -131.5 -104t-91.5 -141h469z" />
    <glyph glyph-name="iconfonticonfontrocket" unicode="&#xe652;" 
d="M632.5 411q37.5 0 64.5 27t27 65t-27 65t-64.5 27t-64.5 -27t-27 -65t27 -65t64.5 -27zM632.5 457q-18.5 0 -32 13.5t-13.5 32.5t13.5 32.5t32 13.5t32 -13.5t13.5 -32.5t-13.5 -32.5t-32 -13.5zM335 287q-90 0 -171 -223q-5 -14 6 -24q6 -6 15 -7h1q4 0 8 2
q203 74 221 155q9 39 -24 72q-26 25 -56 25zM370 200q-5 -24 -48 -53q-36 -25 -96 -50q28 66 56 103q29 40 52 41h1q11 0 24 -12q14 -15 11 -29zM856 732h-17h-1q-135 0 -238 -45q-85 -38 -144 -104q-9 -11 -18 -23q-45 -4 -91 -36q-39 -28 -77 -75q-42 -52 -70 -107v-1
q-9 -17 7 -28q6 -5 13 -5q10 0 16 7q16 15 44 31q46 26 95 30q14 -32 56.5 -74t74.5 -57q-4 -49 -30 -95q-16 -27 -32 -43q-13 -14 -2 -30q7 -9 19 -9q5 0 10 2v0q55 28 107 70q48 39 75 78q32 45 36 90q12 9 23 19q67 58 104 144q46 102 46 238v17q0 6 -6 6zM402 503
q-22 -42 -30 -81q-40 -3 -79 -19q55 75 109 100zM815 686q-7 -213 -133 -324v-1q-45 -39 -98 -61q-37 -14 -54 -15q-7 2 -23 13q-20 14 -42.5 36.5t-36.5 42.5q-12 16 -13 23q0 18 15 54q22 54 61 98q112 127 324 134zM632 272q-24 -53 -99 -109q16 39 19 79q38 8 80 30z
" />
    <glyph glyph-name="xiangyou1" unicode="&#xe61a;" 
d="M629 388l-378 -378l74 -74l450 450l-450 450l-72 -72z" />
    <glyph glyph-name="dingwei" unicode="&#xe622;" 
d="M511 -128l-21 19q-11 10 -28 26t-57.5 57.5t-78 84t-81.5 99.5t-75.5 109t-53 109t-21.5 103q0 113 55.5 209t151.5 151.5t209 55.5t209 -55.5t151.5 -151.5t55.5 -209q0 -46 -21.5 -103t-53.5 -109t-76 -109t-81 -99.5t-77.5 -84t-57.5 -57.5t-28 -26l-21 -19v0z
M511 832q-96 0 -177.5 -47.5t-128.5 -128.5t-47 -177q0 -54 37.5 -129t97 -150t113.5 -134t105 -108q51 49 105 108t113.5 134t97 150t37.5 129q0 96 -47 177t-128.5 128.5t-177.5 47.5v0zM511 325q-71 0 -121.5 50t-50.5 121t50.5 121t121.5 50t121 -50t50 -121t-50 -121
t-121 -50v0zM511 604q-45 0 -77 -31.5t-32 -76.5t32 -76.5t77 -31.5t76.5 31.5t31.5 76.5t-31.5 76.5t-76.5 31.5v0z" />
    <glyph glyph-name="falv" unicode="&#xe6c9;" horiz-adv-x="1039" 
d="M1039 384l-158 349v34h-290q0 37 -21.5 61.5t-53.5 24.5t-54 -24t-22 -62h-282h-3v-39l-155 -344v0v0v0v0q0 -80 52 -137.5t135 -57.5q84 0 135.5 57.5t51.5 137.5v0v0v0v0l-142 314h226v-663h-221q-63 0 -91.5 -30t-28.5 -90h805q0 54 -29.5 87t-90.5 33h-118h-116v663
h239l-142 -314v0q0 -79 52 -137t135 -58q84 0 135.5 57.5t51.5 137.5v0v0v0zM293 384h-212l106 270zM746 384l106 270l106 -270h-212z" />
    <glyph glyph-name="guanyuwomen" unicode="&#xe611;" 
d="M512 896q-139 0 -257 -68.5t-186.5 -186.5t-68.5 -257t68.5 -257t186.5 -186.5t257 -68.5t257 68.5t186.5 186.5t68.5 257t-68.5 257t-186.5 186.5t-257 68.5zM512 -54q-89 0 -170 35t-139.5 93.5t-93 139.5t-34.5 170t34.5 170t93 139.5t139.5 93t170 34.5t170 -34.5
t139.5 -93t93 -139.5t34.5 -170t-34.5 -170t-93 -139.5t-139.5 -93.5t-170 -35zM512 520q-15 0 -26 -11t-11 -26v-331q0 -15 11 -25.5t26 -10.5t26 10.5t11 25.5v331q0 15 -11 26t-26 11zM512 615zM475 615.5q0 15.5 11 26t26 10.5t26 -10.5t11 -26t-11 -26.5t-26 -11
t-26 11t-11 26.5z" />
    <glyph glyph-name="renren" unicode="&#xe70a;" 
d="M922 389q0 -166 -108 -297q-123 62 -199.5 184.5t-76.5 276.5v292q102 -15 194 -82q82 -60 138 -164q52 -88 52 -210zM681 -10q-105 -57 -220.5 -57t-219.5 57q83 53 143 128q62 77 77 158q26 -96 82 -158q50 -72 138 -128zM384 845v-292q0 -154 -77 -276.5t-199 -184.5
q-108 131 -108 297q0 115 51 210q55 101 138 164q93 67 195 82v0z" />
    <glyph glyph-name="xingji" unicode="&#xe74a;" 
d="M973 487.5q-8 25.5 -35 28.5l-267 39l-120 238q-12 24 -39 24t-39 -24l-119 -238l-268 -39q-27 -4 -35 -29t11 -43l194 -186l-46 -263q-5 -26 17 -41.5t46 -2.5l239 124l240 -124q9 -5 20 -5q14 0 25 8q22 15 17 41l-46 263l194 186q19 18 11 43.5z" />
    <glyph glyph-name="shaixuan" unicode="&#xe640;" 
d="M579 30q-9 0 -16 6l-139 112v11v9v216q0 1 -5.5 8.5t-5.5 8.5l-223 220l-3 3q-19 20 -19 47q0 28 16 47.5t43 19.5h570q27 0 43 -19.5t16 -47.5q0 -27 -19 -46q-1 -2 -2 -3l-231 -228q-4 -4 -4 -10v-334q0 -12 -11 -17q-5 -3 -10 -3v0zM463 177l98 -88v295q0 37 8 44
l231 228q0 1 2 2q5 6 5 13q0 27 -10 27h-570q-10 0 -10 -27q0 -8 6 -13q1 -1 3 -4l221 -219q16 -15 16 -36v-222v0zM463 177z" />
    <glyph glyph-name="shengyin" unicode="&#xe623;" 
d="M512 190q-79 0 -135.5 56.5t-56.5 135.5v256q0 79 56.5 135.5t135.5 56.5t135.5 -56.5t56.5 -135.5v-256q0 -79 -56.5 -135.5t-135.5 -56.5zM512 766q-53 0 -90.5 -37.5t-37.5 -90.5v-256q0 -53 37.5 -90.5t90.5 -37.5t90.5 37.5t37.5 90.5v256q0 53 -37.5 90.5
t-90.5 37.5zM864 416v128q0 13 -9.5 22.5t-22.5 9.5t-22.5 -9.5t-9.5 -22.5v-128q0 -120 -84.5 -205t-203.5 -85t-203.5 85t-84.5 205v128q0 13 -9.5 22.5t-22.5 9.5t-22.5 -9.5t-9.5 -22.5v-128q0 -138 92.5 -239t227.5 -114v-63h-192q-13 0 -22.5 -9.5t-9.5 -22.5
t9.5 -22.5t22.5 -9.5h448q13 0 22.5 9.5t9.5 22.5t-9.5 22.5t-22.5 9.5h-192v63q135 13 227.5 114t92.5 239z" />
    <glyph glyph-name="seo-marketing-business-analytics-chart-bar-upward" unicode="&#xe60a;" 
d="M160 672h-32v-576h768v32h-736v544zM384 384h-128v-192h128v192zM352 224h-64v128h64v-128zM608 480h-128v-288h128v288zM576 224h-64v224h64v-224zM704 192h128v320h64l-128 160l-128 -160h64v-320zM768 618l64 -74h-32v-320h-64v320h-32z" />
    <glyph glyph-name="seo-marketing-business-analytics-presentation-sales" unicode="&#xe60b;" 
d="M528 720v64h-32v-64h-368v-96h32v-480h307l-137 -138l22 -22l160 160l160 -160l22 22l-137 138h307v480h32v96h-368zM832 176h-640v448h640v-448zM864 656h-704v32h704v-32zM352 432h-96v-192h96v192zM320 272h-32v128h32v-128zM512 528h-96v-288h96v288zM480 272h-32
v224h32v-224zM608 240h96v192h64l-112 160l-112 -160h64v-192zM605 464l51 74l51 -74h-35v-192h-32v192h-35z" />
    <glyph glyph-name="shouji" unicode="&#xe6f5;" 
d="M763 -31h-471q-24 0 -41.5 17t-17.5 42v746q0 24 17.5 41.5t41.5 17.5h471q24 0 41.5 -17.5t17.5 -41.5v-746q0 -25 -17.5 -42t-41.5 -17zM527.5 28q16.5 0 28 11.5t11.5 27.5t-11.5 27.5t-28 11.5t-28 -11.5t-11.5 -27.5t11.5 -27.5t28 -11.5zM606 793h-157v-39h157v39
v0zM783 715h-511v-569h511v569z" />
    <glyph glyph-name="nianhuishuju" unicode="&#xe62a;" 
d="M890 762h-760q-24 0 -41.5 -17.5t-17.5 -41.5v-507q0 -25 17.5 -42.5t41.5 -17.5h289v-70h-67q-12 0 -20 -8t-8 -19.5t8 -19.5t20 -8h316q12 0 20 8t8 19.5t-8 19.5t-20 8h-67v70h289q24 0 41.5 17.5t17.5 42.5v507q0 24 -17.5 41.5t-41.5 17.5zM894 214v0q0 -9 -7 -16
t-17 -7h-720q-10 0 -17 7t-7 16v468q0 10 7 17t17 7h720q10 0 17 -7t7 -17v-468zM277 383h-40q-8 0 -8 -8v-103q0 -8 8 -8h40q8 0 8 8v103q0 8 -8 8zM403 446h-39q-8 0 -8 -8v-166q0 -8 8 -8h39q8 0 8 8v166q0 8 -8 8zM530 636h-40q-7 0 -7 -8v-356q0 -8 7 -8h40q8 0 8 8
v356q0 8 -8 8zM783 573h-39q-8 0 -8 -8v-293q0 -8 8 -8h39q8 0 8 8v293q0 8 -8 8zM657 482h-40q-8 0 -8 -8v-202q0 -8 8 -8h40q7 0 7 8v202q0 8 -7 8z" />
    <glyph glyph-name="guanbi" unicode="&#xe60e;" 
d="M506.5 -72q97.5 0 186.5 38t153.5 102t102.5 153t38 186.5t-38 186.5t-102.5 153.5t-153.5 102.5t-186.5 38t-186.5 -38t-153 -102.5t-102 -153.5t-38 -186.5t38 -186.5t102 -153t153 -102t186.5 -38zM507 824q113 0 208.5 -56t151.5 -151.5t56 -208.5t-56 -209
t-151.5 -151.5t-208.5 -55.5t-209 55.5t-151.5 151.5t-55.5 209t55.5 208.5t151.5 151.5t209 56zM252 276q9 -7 20 -7t19 9l216 236l215 -236q9 -9 21 -9q11 0 19 7q4 5 7.5 9.5t5.5 8t3 6.5t0.5 6t-1 5t-2 4t-2 3t-2.5 3l-3 3l-241 265q-8 8 -20.5 8t-20.5 -8l-239 -264
q-24 -26 5 -49z" />
    <glyph glyph-name="xiangao" unicode="&#xe731;" 
d="M838 353h-2l-164 24q-6 1 -9.5 6t-2.5 10.5t5.5 9t10.5 3.5l150 -23l46 307l-528 80l-15 -101q-1 -6 -6 -9.5t-10.5 -2.5t-9 6t-2.5 10l17 116q1 5 5.5 8.5t10.5 2.5l557 -84q6 -1 9 -5t3 -9v-2l-51 -335q-1 -6 -6 -10q-3 -2 -8 -2v0zM743 369h-2q-6 1 -9.5 6t-2.5 10
q8 45 44.5 71.5t80.5 19.5q6 -1 9.5 -5.5t2.5 -10.5t-5.5 -9.5t-10.5 -2.5q-33 5 -60 -15t-33 -52q-2 -12 -14 -12zM869 601h-1q-40 5 -64 38q-26 34 -18 79q1 6 5.5 9.5t10.5 2.5t9.5 -6t2.5 -11q-6 -32 13 -58q17 -22 44 -26q6 -1 9.5 -5.5t2.5 -10.5q-1 -12 -14 -12z
M332 681q-8 0 -16 1q-6 1 -9.5 5.5t-2.5 10.5t6 9.5t10 2.5q32 -5 58 14t30 51q1 6 6 9.5t10.5 2.5t9 -6t2.5 -10q-5 -39 -35 -64.5t-69 -25.5zM797.5 137q-52.5 0 -87.5 18t-35 46q0 6 4 10t10 4t10 -4t4 -10q0 -12 27 -24t67 -12t67 12t27 24q0 6 4.5 10t10 4t10 -4
t4.5 -10q0 -28 -35 -46t-87.5 -18zM797.5 74q-52.5 0 -87.5 18.5t-35 45.5q0 6 4 10t10 4t10 -4t4 -10q0 -12 27 -23.5t67 -11.5t67 11.5t27 23.5q0 6 4.5 10t10 4t10 -4t4.5 -10q0 -27 -35 -45.5t-87.5 -18.5zM797.5 12q-52.5 0 -87.5 18t-35 46v187q0 6 4 10.5t10 4.5
t10 -4.5t4 -10.5v-187q0 -13 27 -24.5t67 -11.5t67 11.5t27 24.5v187q0 6 4.5 10.5t10 4.5t10 -4.5t4.5 -10.5v-187q0 -28 -35 -46t-87.5 -18zM797.5 199q-52.5 0 -87.5 18.5t-35 46t35 45.5t87.5 18t87.5 -18t35 -45.5t-35 -46t-87.5 -18.5zM797 299q-40 0 -67 -11.5
t-27 -24t27 -24t67 -11.5t67 11.5t27 24t-27 24t-67 11.5zM224.5 441q-52.5 0 -87.5 18.5t-35 45.5q0 6 4 10.5t10 4.5t10.5 -4.5t4.5 -10.5q0 -12 27 -23.5t67 -11.5t67 11.5t27 23.5q0 6 4 10.5t10 4.5t10 -4.5t4 -10.5q0 -27 -35 -45.5t-87.5 -18.5zM224.5 379
q-52.5 0 -87.5 18t-35 46q0 6 4 10t10 4t10.5 -4t4.5 -10q0 -12 27 -24t67 -12t67 12t27 24q0 6 4 10t10 4t10 -4t4 -10q0 -28 -35 -46t-87.5 -18zM224.5 316q-52.5 0 -87.5 18.5t-35 45.5q0 6 4 10t10 4t10.5 -4t4.5 -10q0 -12 27 -23.5t67 -11.5t67 11.5t27 23.5q0 6 4 10
t10 4t10 -4t4 -10q0 -27 -35 -45.5t-87.5 -18.5zM224.5 254q-52.5 0 -87.5 18t-35 46q0 6 4 10t10 4t10.5 -4t4.5 -10q0 -13 27 -24.5t67 -11.5t67 11.5t27 24.5q0 6 4 10t10 4t10 -4t4 -10q0 -28 -35 -46t-87.5 -18zM224.5 191q-52.5 0 -87.5 18.5t-35 45.5q0 6 4 10t10 4
t10.5 -4t4.5 -10q0 -12 27 -24t67 -12t67 12t27 24q0 6 4 10t10 4t10 -4t4 -10q0 -27 -35 -45.5t-87.5 -18.5zM224.5 129q-52.5 0 -87.5 18t-35 46q0 5 4 9.5t10 4.5t10.5 -4.5t4.5 -9.5q0 -13 27 -24.5t67 -11.5t67 11.5t27 24.5q0 5 4 9.5t10 4.5t10 -4.5t4 -9.5
q0 -28 -35 -46t-87.5 -18zM224.5 66q-52.5 0 -87.5 18.5t-35 45.5q0 6 4 10t10 4t10.5 -4t4.5 -10q0 -12 27 -24t67 -12t67 12t27 24q0 6 4 10t10 4t10 -4t4 -10q0 -27 -35 -45.5t-87.5 -18.5zM224.5 3q-52.5 0 -87.5 18.5t-35 45.5v502q0 6 4 10t10 4t10.5 -4t4.5 -10v-502
q0 -12 27 -23.5t67 -11.5t67 11.5t27 23.5v502q0 6 4 10t10 4t10 -4t4 -10v-502q0 -27 -35 -45.5t-87.5 -18.5zM224.5 505q-52.5 0 -87.5 18.5t-35 45.5t35 45.5t87.5 18.5t87.5 -18.5t35 -45.5t-35 -45.5t-87.5 -18.5zM225 605q-40 0 -67 -12t-27 -24t27 -24t67 -12t67 12
t27 24t-27 24t-67 12zM510 218q-52 0 -87 18t-35 46q0 6 4 10t10 4t10 -4t4 -10q0 -12 27 -24t67 -12t67 12t27 24q0 6 4 10t10 4t10.5 -4t4.5 -10q0 -28 -35.5 -46t-87.5 -18zM510 155q-52 0 -87 18.5t-35 45.5q0 6 4 10t10 4t10 -4t4 -10q0 -12 27 -23.5t67 -11.5t67 11.5
t27 23.5q0 6 4 10t10 4t10.5 -4t4.5 -10q0 -27 -35.5 -45.5t-87.5 -18.5zM510 93q-52 0 -87 18t-35 46q0 6 4 10t10 4t10 -4t4 -10q0 -12 27 -24t67 -12t67 12t27 24q0 6 4 10t10 4t10.5 -4t4.5 -10q0 -28 -35.5 -46t-87.5 -18zM510 30q-52 0 -87 18.5t-35 45.5q0 6 4 10
t10 4t10 -4t4 -10q0 -12 27 -23.5t67 -11.5t67 11.5t27 23.5q0 6 4 10t10 4t10.5 -4t4.5 -10q0 -27 -35.5 -45.5t-87.5 -18.5zM510 -32q-52 0 -87 18t-35 46v313q0 6 4 10.5t10 4.5t10 -4.5t4 -10.5v-313q0 -13 27 -24.5t67 -11.5t67 11.5t27 24.5v313q0 6 4 10.5t10 4.5
t10.5 -4.5t4.5 -10.5v-313q0 -28 -35.5 -46t-87.5 -18zM510 281q-52 0 -87 18.5t-35 46t35 46t87 18.5t87.5 -18.5t35.5 -46t-35.5 -46t-87.5 -18.5zM510 381q-40 0 -67 -11.5t-27 -24t27 -24t67 -11.5t67 11.5t27 24t-27 24t-67 11.5zM580 474v0q-4 0 -9 1q-33 5 -58 34
q-10 11 1 20t20 -1q19 -22 41 -25q13 -2 23.5 4.5t12.5 17.5q0 4 -1.5 8t-9 11t-22.5 13q-54 26 -49 62q4 22 23.5 36t44.5 10q35 -5 49 -34q6 -13 -7 -19t-19 7q-7 15 -27 18q-13 2 -23.5 -4.5t-12.5 -17.5q-1 -8 6 -15.5t27 -16.5q54 -24 49 -62q-3 -20 -20 -33.5
t-39 -13.5zM595 637h-2q-5 1 -9 5.5t-3 10.5l3 22q1 6 6 9.5t10.5 2.5t9 -5.5t2.5 -10.5l-3 -22q-1 -12 -14 -12zM570 453h-2q-6 1 -9.5 5.5t-2.5 10.5l3 22q1 6 5.5 9.5t10.5 2.5t9.5 -5.5t2.5 -10.5l-3 -22q-2 -12 -14 -12z" />
    <glyph glyph-name="hot" unicode="&#xe60d;" horiz-adv-x="1504" 
d="M1125 507h-65v-185h-56v185h-65v48h186v-48v0zM925 389q-21 -52 -74 -67q-14 -6 -42 -6q-26 0 -51 9q-32 13 -52 41q-1 0 -4.5 6t-7.5 16.5t-6 20.5l-4 26v3v2v2q0 26 10 49q13 32 41 50q1 2 6.5 5t16 7t21.5 6l30 3q26 0 51 -9q32 -12 52 -39q2 0 5 -6t7 -16t7 -21
l3 -26v-3v-2v-1q0 -27 -10 -50h1zM647 322h-55v98h-90v-98h-55v233h55v-88h90v88h55v-233v0zM991 734h-446q-118 -1 -201 -85t-83 -201v-2v-411l176 123h554q117 3 198.5 87t81.5 201t-81.5 200.5t-198.5 87.5v0zM856 491q-13 14 -31 18l-15 2h-1h-1q-14 0 -26 -6
q-28 -12 -35 -42q-4 -7 -4 -22v-1v-1q0 -15 5 -29q7 -18 23 -31q-1 0 0.5 -1t3.5 -2t4.5 -2t6.5 -2.5t7 -2.5l16 -2q28 0 47 21q14 15 17 34l2 17v1v0q0 15 -5 29q-7 18 -22 30z" />
    <glyph glyph-name="redian1" unicode="&#xe7e4;" 
d="M246 607q-6 -6 -17 -17.5t-38 -48t-48 -75t-39.5 -96t-19.5 -113.5q-3 -73 33 -144.5t94.5 -124.5t136.5 -85t155 -30q81 2 155.5 27t135 70.5t99.5 117t46 159.5q4 50 -4 97t-23.5 81.5t-35.5 70.5t-38.5 63.5t-32.5 60.5t-19 62t4 68q-4 2 -11 3t-26 -7t-35.5 -27.5
t-35 -68.5t-29.5 -121q-13 -88 -36 -79q-30 12 -60 162q-24 123 -19 189q2 32 6 55.5t6 30.5l3 8q-5 -2 -14.5 -6t-35 -19t-49 -34.5t-51 -53.5t-46 -73.5t-29 -97.5t-6.5 -123q7 -98 -5 -99q-9 1 -38 66q-14 31 -22.5 69t-9.5 60z" />
    <glyph glyph-name="xinwen11" unicode="&#xe613;" horiz-adv-x="1078" 
d="M859 -38h-111v0h-540q-49 0 -83.5 35.5t-34.5 85.5v723h755v-733q0 -28 -22 -66q4 -1 10 -1.5t23 1.5t31 8t28 21t19 37v622h44v-622q0 -49 -34 -80t-85 -31v0zM135 761v-688q0 -25 21 -45.5t45 -20.5h555q23 0 34 23t11 53v678h-666zM224 251h466v-45h-466v45zM224 384
v44h465v-44h-465zM224 606h466v-45h-466v45z" />
    <glyph glyph-name="tuichudenglu" unicode="&#xe627;" 
d="M760 200v0q-9 0 -15 -6t-6 -15v-59q0 -17 -14 -29.5t-33 -12.5h-604q-20 0 -34 12.5t-14 29.5v528q0 17 14 29.5t34 12.5h604q19 0 33 -12.5t14 -29.5v-67q0 -8 6 -14t14.5 -6t14.5 6t6 14v67q0 34 -26 58.5t-62 24.5h-604q-36 0 -62 -24.5t-26 -58.5v-528
q0 -34 26 -58.5t62 -24.5h604q36 0 62 24.5t26 58.5v59v0q0 9 -6 15t-14 6v0zM1024 394.5q0 8.5 -6 14.5l-146 146q-6 7 -15 7q-8 0 -14 -6t-6 -15q0 -8 6 -14l112 -113h-448q-8 0 -13.5 -6t-5.5 -14t5.5 -13.5t13.5 -6.5h448l-112 -112q-5 -6 -5 -14t6 -14t14 -6t13 5
l147 147q6 6 6 14.5z" />
    <glyph glyph-name="zhankai1" unicode="&#xe628;" 
d="M517.5 840q-97.5 0 -186.5 -38t-153.5 -102t-102.5 -153t-38 -186.5t38 -186.5t102.5 -153.5t153.5 -102.5t186.5 -38t186.5 38t153 102.5t102 153.5t38 186.5t-38 186.5t-102 153t-153 102t-186.5 38zM517 -56q-113 0 -208.5 56t-151.5 151.5t-56 208.5t56 209
t151.5 151.5t208.5 55.5t209 -55.5t151.5 -151.5t55.5 -209t-55.5 -208.5t-151.5 -151.5t-209 -56zM772 492q-9 7 -20 7t-19 -9l-216 -236l-215 236q-9 9 -21 9q-11 0 -19 -7q-4 -5 -7.5 -9.5t-5.5 -8t-3 -6.5t-0.5 -6t1 -5t2 -4t2 -3t2.5 -3l3 -3l241 -265q8 -8 20.5 -8
t20.5 8l239 264q24 26 -5 49z" />
    <glyph glyph-name="new-" unicode="&#xe703;" 
d="M825 684h-626q-51 0 -86.5 -36t-35.5 -87v-177q0 -7 5 -12t12.5 -5t12.5 5t5 12v177q0 37 25.5 63t61.5 26h626q36 0 62 -26t26 -63v-212q0 -37 -26 -63t-62 -26h-591h-1q-3 0 -6.5 -1.5t-5.5 -3.5l-139 -142q-5 -5 -5 -12t5 -12t12 -5q8 0 13 5l134 137h584
q51 0 86.5 36t35.5 87v212q0 51 -35.5 87t-86.5 36zM254 360q6 6 6 17v115l74 -114q4 -5 7 -9.5t7 -8t8 -5t9 -1.5q22 0 22 26v155q0 11 -5 17t-13.5 6t-13.5 -6t-5 -17v-117l-76 116q-5 8 -7 10q-3 5 -6 7q-2 3 -6 5t-10 2t-12 -4t-9 -10q-2 -6 -2 -15v-152q0 -11 5 -17
t13.5 -6t13.5 6zM560 524q10 0 14.5 4t4.5 11t-4.5 11t-14.5 4h-105q-8 0 -13.5 -2.5t-8.5 -7.5q-2 -5 -2 -14v-148q0 -13 5.5 -19t18.5 -6h108q10 0 14.5 4.5t4.5 11.5t-4.5 11.5t-14.5 4.5h-92v56h82q10 0 14 4.5t4 11t-4.5 10.5t-13.5 4h-82v48h89v1zM636 377q2 -7 5 -12
t8 -8t12 -3q9 0 15 5q5 5 7 11q2 5 6 19l33 118l31 -118q4 -14 7 -20q2 -5 7.5 -9.5t14.5 -4.5q10 0 15 4.5t7 10.5q2 5 6 20l33 132q2 12 2 18q0 8 -5.5 13t-13 5t-11.5 -4t-6 -9q-1 -5 -3 -14l-26 -115l-29 107q-4 14 -6 19q-2 6 -7.5 11t-16 5t-16 -5t-8.5 -11
q-3 -8 -5 -19l-29 -107l-26 115q-3 13 -6.5 20t-14.5 7q-8 0 -13.5 -5.5t-5.5 -12.5q0 -6 3 -18l33 -132q2 -7 3 -13z" />
  </font>
</defs>
</svg>
